<svg xmlns="http://www.w3.org/2000/svg" width="720" height="420" viewBox="0 0 720 420">
<rect width="100%" height="100%" fill="#f7f5f1"/>
<text x="24" y="28" font-family="Georgia, serif" font-size="16" fill="#1a1a1a">C-A1 AluSz OR forest (ChIA-PET vs Hi-C)</text>
<line x1="369.4117647058824" y1="50" x2="369.4117647058824" y2="370" stroke="#999" stroke-dasharray="4 3"/>
<line x1="425.8823529411765" y1="50" x2="425.8823529411765" y2="370" stroke="#b85c38" stroke-dasharray="2 2" opacity="0.7"/>
<line x1="538.8235294117648" y1="50" x2="538.8235294117648" y2="370" stroke="#2e7d4f" stroke-dasharray="2 2" opacity="0.7"/>
<text x="369.4117647058824" y="402" text-anchor="middle" font-family="Georgia, serif" font-size="11" fill="#555">OR=1</text>
<text x="425.8823529411765" y="402" text-anchor="middle" font-family="Georgia, serif" font-size="10" fill="#b85c38">fail 1.1</text>
<text x="538.8235294117648" y="402" text-anchor="middle" font-family="Georgia, serif" font-size="10" fill="#2e7d4f">MCID 1.3</text>
<text x="12" y="80.66666666666667" font-family="Georgia, serif" font-size="12" fill="#222">K562 HiCCUPS</text>
<line x1="285.2705882352941" y1="76.66666666666667" x2="350.77647058823527" y2="76.66666666666667" stroke="#1f4e79" stroke-width="2.5"/>
<circle cx="317.4588235294118" cy="76.66666666666667" r="5.5" fill="#1f4e79"/>
<text x="688" y="80.66666666666667" font-family="Georgia, serif" font-size="11" fill="#333">0.908</text>
<text x="12" y="134.0" font-family="Georgia, serif" font-size="12" fill="#222">K562 umap≥0.3</text>
<line x1="280.18823529411765" y1="130.0" x2="345.1294117647059" y2="130.0" stroke="#5b7a9d" stroke-width="2.5"/>
<circle cx="311.8117647058824" cy="130.0" r="5.5" fill="#5b7a9d"/>
<text x="688" y="134.0" font-family="Georgia, serif" font-size="11" fill="#333">0.898</text>
<text x="12" y="187.33333333333334" font-family="Georgia, serif" font-size="12" fill="#222">K562 DELTA swap</text>
<line x1="282.4470588235294" y1="183.33333333333334" x2="360.94117647058823" y2="183.33333333333334" stroke="#7a8fa6" stroke-width="2.5"/>
<circle cx="320.2823529411765" cy="183.33333333333334" r="5.5" fill="#7a8fa6"/>
<text x="688" y="187.33333333333334" font-family="Georgia, serif" font-size="11" fill="#333">0.913</text>
<text x="12" y="240.66666666666669" font-family="Georgia, serif" font-size="12" fill="#222">GM12878</text>
<line x1="466.5411764705882" y1="236.66666666666669" x2="560.8470588235293" y2="236.66666666666669" stroke="#2e7d4f" stroke-width="2.5"/>
<circle cx="511.71764705882356" cy="236.66666666666669" r="5.5" fill="#2e7d4f"/>
<text x="688" y="240.66666666666669" font-family="Georgia, serif" font-size="11" fill="#333">1.252</text>
<text x="12" y="294.0" font-family="Georgia, serif" font-size="12" fill="#222">HCT116</text>
<line x1="460.8941176470588" y1="290.0" x2="600.9411764705882" y2="290.0" stroke="#3d8b5a" stroke-width="2.5"/>
<circle cx="527.5294117647059" cy="290.0" r="5.5" fill="#3d8b5a"/>
<text x="688" y="294.0" font-family="Georgia, serif" font-size="11" fill="#333">1.280</text>
<text x="12" y="347.33333333333337" font-family="Georgia, serif" font-size="12" fill="#222">HCT116 umap≥0.3</text>
<line x1="460.8941176470588" y1="343.33333333333337" x2="601.5058823529412" y2="343.33333333333337" stroke="#6aa87f" stroke-width="2.5"/>
<circle cx="528.0941176470587" cy="343.33333333333337" r="5.5" fill="#6aa87f"/>
<text x="688" y="347.33333333333337" font-family="Georgia, serif" font-size="11" fill="#333">1.281</text>
<text x="24" y="408" font-family="Georgia, serif" font-size="10" fill="#666">Descriptive call-set OR only — not causal. Status: INCONCLUSIVE_CROSS_CELL.</text>
</svg>